<?xml version="1.0" standalone="no"?><!DOCTYPE svg PUBLIC "-//W3C//DTD SVG 1.1//EN" "http://www.w3.org/Graphics/SVG/1.1/DTD/svg11.dtd"><svg class="icon" width="32px" height="32.00px" viewBox="0 0 1024 1024" version="1.1" xmlns="http://www.w3.org/2000/svg"><path d="M192 789.333333a85.333333 85.333333 0 0 1-85.333333-85.333333V234.666667a85.333333 85.333333 0 0 1 85.333333-85.333334h640a85.333333 85.333333 0 0 1 85.333333 85.333334v469.333333a85.333333 85.333333 0 0 1-85.333333 85.333333H618.666667l-91.584 91.584a21.333333 21.333333 0 0 1-30.165334 0L405.333333 789.333333H192z m128-277.333333a42.666667 42.666667 0 1 0 0-85.333333 42.666667 42.666667 0 0 0 0 85.333333z m192 0a42.666667 42.666667 0 1 0 0-85.333333 42.666667 42.666667 0 0 0 0 85.333333z m192 0a42.666667 42.666667 0 1 0 0-85.333333 42.666667 42.666667 0 0 0 0 85.333333z"  /></svg>