<?xml version="1.0" standalone="no"?><!DOCTYPE svg PUBLIC "-//W3C//DTD SVG 1.1//EN" "http://www.w3.org/Graphics/SVG/1.1/DTD/svg11.dtd"><svg class="icon" width="32px" height="32.00px" viewBox="0 0 1024 1024" version="1.1" xmlns="http://www.w3.org/2000/svg"><path d="M490.666667 149.333333a21.333333 21.333333 0 0 1 21.333333 21.333334v298.794666c0 23.488 19.093333 42.538667 42.538667 42.538667H853.333333a21.333333 21.333333 0 0 1 21.333334 21.333333c0 212.074667-171.925333 384-384 384S106.666667 745.408 106.666667 533.333333 278.592 149.333333 490.666667 149.333333z m-42.666667 66.816l-3.456 0.490667C289.664 238.976 170.666667 372.266667 170.666667 533.333333c0 176.725333 143.274667 320 320 320 161.066667 0 294.357333-118.997333 316.693333-273.877333l0.469333-3.456H554.538667a106.56 106.56 0 0 1-106.453334-101.909333L448 469.461333V216.149333zM593.962667 106.666667C772.565333 106.666667 917.333333 251.434667 917.333333 430.037333a17.962667 17.962667 0 0 1-18.005333 17.962667H618.666667a42.666667 42.666667 0 0 1-42.666667-42.666667V124.629333c0-9.92 8.042667-17.962667 17.962667-17.962666zM640 174.741333v187.306667a21.333333 21.333333 0 0 0 21.269333 21.333333l187.946667 0.490667-0.853333-4.565333a259.669333 259.669333 0 0 0-203.669334-203.690667L640 174.741333z"  /></svg>