<?xml version="1.0" standalone="no"?><!DOCTYPE svg PUBLIC "-//W3C//DTD SVG 1.1//EN" "http://www.w3.org/Graphics/SVG/1.1/DTD/svg11.dtd"><svg class="icon" width="32px" height="32.00px" viewBox="0 0 1024 1024" version="1.1" xmlns="http://www.w3.org/2000/svg"><path d="M815.020408 167.183673a114.938776 114.938776 0 0 1 114.938776 114.938776v438.857143a114.938776 114.938776 0 0 1-114.938776 114.938775h-606.040816A114.938776 114.938776 0 0 1 94.040816 720.979592v-438.857143A114.938776 114.938776 0 0 1 208.979592 167.183673z m-459.755102 472.732735L221.936327 773.22449h266.637061L355.265306 639.916408z m290.230857-63.007347l-140.07902 124.510041 60.10253 60.081633c3.406367 3.427265 5.872327 7.439673 7.397878 11.723755H815.020408c2.821224 0 5.600653-0.20898 8.317388-0.668735l-177.841633-195.646694zM815.020408 229.877551h-606.040816A52.244898 52.244898 0 0 0 156.734694 282.122449v438.857143c0 8.380082 1.964408 16.300408 5.475265 23.322122l170.882612-170.882612a31.346939 31.346939 0 0 1 41.963102-2.15249l2.382368 2.15249 83.570939 83.591837 165.992489-147.539592a31.346939 31.346939 0 0 1 39.350858-1.880816l2.424163 1.985306 2.256979 2.236081 195.855674 215.45796c0.250776-2.068898 0.376163-4.179592 0.376163-6.290286v-438.857143a52.244898 52.244898 0 0 0-52.244898-52.244898zM344.816327 292.571429a104.489796 104.489796 0 1 1 0 208.979591 104.489796 104.489796 0 0 1 0-208.979591z m0 62.693877a41.795918 41.795918 0 1 0 0 83.591837 41.795918 41.795918 0 0 0 0-83.591837z"  /></svg>